<?xml version="1.0" encoding="UTF-8"?>
<svg width="96" height="96" viewBox="0 0 96 96" fill="none" xmlns="http://www.w3.org/2000/svg">
    <rect width="96" height="96" rx="8" fill="#F7F7F7"/>
    <rect x="28" y="24" width="40" height="48" rx="4" fill="#DDDDDD"/>
    <path d="M48 36C44.6863 36 42 38.6863 42 42C42 45.3137 44.6863 48 48 48C51.3137 48 54 45.3137 54 42C54 38.6863 51.3137 36 48 36ZM48 46C45.7909 46 44 44.2091 44 42C44 39.7909 45.7909 38 48 38C50.2091 38 52 39.7909 52 42C52 44.2091 50.2091 46 48 46Z" fill="white"/>
    <path d="M48 50C44.134 50 41 53.134 41 57V60H55V57C55 53.134 51.866 50 48 50ZM53 58H43V57C43 54.2386 45.2386 52 48 52C50.7614 52 53 54.2386 53 57V58Z" fill="white"/>
</svg> 